<?xml version="1.0" standalone="no"?>
<!DOCTYPE svg PUBLIC "-//W3C//DTD SVG 20010904//EN"
 "http://www.w3.org/TR/2001/REC-SVG-20010904/DTD/svg10.dtd">
<svg version="1.0" xmlns="http://www.w3.org/2000/svg"
 width="512.000000pt" height="512.000000pt" viewBox="0 0 512.000000 512.000000"
 preserveAspectRatio="xMidYMid meet">

<g transform="translate(0.000000,512.000000) scale(0.100000,-0.100000)"
stroke="none">
<path d="M881 4894 c-30 -8 -69 -23 -86 -34 -51 -32 -110 -102 -131 -156 -18
-48 -19 -108 -19 -2149 l0 -2100 24 -53 c31 -68 113 -144 183 -169 51 -17 129
-18 1708 -18 1579 0 1657 1 1708 18 70 25 152 101 183 169 l24 53 0 2105 0
2105 -24 53 c-29 64 -112 143 -178 168 -46 18 -117 19 -1693 21 -1417 2 -1653
0 -1699 -13z m3338 -220 c54 -38 51 77 51 -2114 0 -2191 3 -2076 -51 -2114
-21 -15 -163 -16 -1659 -16 -1817 0 -1666 -6 -1696 66 -21 50 -21 4078 0 4128
30 72 -121 66 1696 66 1496 0 1638 -1 1659 -16z"/>
<path d="M1118 4463 c-56 -36 -66 -117 -19 -164 72 -71 196 -6 177 93 -13 70
-99 109 -158 71z"/>
<path d="M2385 4469 c-398 -55 -752 -273 -973 -600 -380 -564 -297 -1316 198
-1782 361 -340 863 -460 1345 -322 194 56 414 186 574 339 342 330 491 838
381 1301 -124 525 -542 935 -1065 1045 -116 24 -352 34 -460 19z m290 -209
c506 -57 903 -403 1026 -894 30 -118 37 -351 15 -471 -55 -293 -200 -538 -424
-717 -136 -108 -273 -175 -461 -226 -86 -23 -115 -25 -271 -25 -156 0 -185 2
-271 25 -188 51 -325 118 -461 226 -224 179 -369 424 -424 717 -22 121 -15
353 15 473 120 480 523 834 1011 891 106 12 143 12 245 1z"/>
<path d="M2451 3504 c-80 -21 -147 -62 -201 -121 -154 -169 -154 -414 1 -578
87 -92 185 -135 309 -135 124 0 222 43 309 135 155 164 155 409 1 578 -104
114 -268 162 -419 121z m214 -227 c122 -68 141 -245 35 -341 -135 -122 -349
-26 -350 157 -1 165 168 264 315 184z"/>
<path d="M3910 4473 c-30 -11 -60 -47 -66 -81 -19 -99 105 -164 177 -93 78 79
-7 212 -111 174z"/>
<path d="M1541 1474 c-48 -34 -51 -60 -51 -409 0 -359 3 -381 59 -409 38 -20
64 -20 102 0 46 23 59 67 59 194 l0 110 105 0 105 0 0 -126 0 -126 34 -34 c38
-38 77 -44 125 -20 49 26 51 40 51 422 l0 356 -29 29 c-48 47 -130 37 -164
-21 -13 -22 -17 -54 -17 -149 l0 -121 -105 0 -105 0 0 110 c0 157 -28 210
-110 210 -20 0 -46 -7 -59 -16z"/>
<path d="M2293 1479 c-11 -6 -28 -25 -38 -43 -14 -27 -16 -70 -13 -383 l3
-353 28 -27 28 -28 172 0 c167 0 173 1 223 27 76 40 107 70 145 140 l34 63 0
190 c0 188 0 191 -28 247 -30 62 -83 115 -149 150 -39 21 -58 23 -213 25 -107
2 -178 -2 -192 -8z m318 -215 c46 -24 59 -66 59 -200 0 -85 -4 -125 -16 -149
-21 -46 -69 -67 -142 -63 l-57 3 -3 213 -2 212 65 0 c40 0 78 -6 96 -16z"/>
<path d="M3020 1461 l-30 -29 0 -356 c0 -240 4 -363 11 -380 23 -50 59 -58
229 -54 187 4 232 19 309 104 75 82 86 124 86 329 0 163 -1 172 -26 226 -33
69 -89 127 -155 160 -45 22 -63 24 -222 27 l-172 3 -30 -30z m340 -198 c43
-25 50 -52 50 -201 0 -154 -6 -173 -66 -198 -18 -8 -58 -14 -89 -14 l-55 0 0
215 0 215 66 0 c44 0 75 -6 94 -17z"/>
<path d="M1099 821 c-49 -50 -36 -133 26 -166 63 -35 140 4 152 78 15 97 -108
158 -178 88z"/>
<path d="M3894 839 c-34 -17 -57 -66 -51 -106 12 -74 89 -113 152 -78 93 49
61 196 -42 194 -21 0 -47 -5 -59 -10z"/>
</g>
</svg>
