<?xml version="1.0" standalone="no"?>
<!DOCTYPE svg PUBLIC "-//W3C//DTD SVG 20010904//EN"
 "http://www.w3.org/TR/2001/REC-SVG-20010904/DTD/svg10.dtd">
<svg version="1.0" xmlns="http://www.w3.org/2000/svg"
 width="512.000000pt" height="512.000000pt" viewBox="0 0 512.000000 512.000000"
 preserveAspectRatio="xMidYMid meet">

<g transform="translate(0.000000,512.000000) scale(0.100000,-0.100000)"
fill="#000000" stroke="none">
<path d="M364 4309 c-38 -19 -44 -52 -44 -224 l0 -164 -37 -6 c-138 -23 -231
-103 -268 -229 -22 -75 -22 -2177 0 -2252 37 -126 130 -206 268 -229 l37 -6 0
-164 c0 -101 4 -174 11 -189 23 -51 103 -55 128 -7 7 12 11 89 11 190 l0 171
165 0 165 0 0 -165 c0 -101 4 -174 11 -189 23 -51 103 -55 128 -7 7 12 11 89
11 190 l0 171 165 0 165 0 0 -159 c0 -87 5 -172 10 -188 19 -52 78 -64 123
-25 15 13 17 36 17 194 l0 178 164 0 165 0 3 -176 3 -176 28 -24 c34 -29 56
-30 91 -3 l26 20 0 180 0 179 164 0 165 0 3 -176 3 -176 28 -24 c34 -29 56
-30 91 -3 l26 20 0 180 0 179 170 0 170 0 0 -179 0 -180 26 -20 c35 -27 57
-26 91 3 l28 24 3 176 3 176 165 0 164 0 0 -179 0 -180 26 -20 c35 -27 57 -26
91 3 l28 24 3 176 3 176 165 0 164 0 0 -171 c0 -101 4 -178 11 -190 25 -48
105 -44 128 7 7 15 11 88 11 189 l0 165 165 0 165 0 0 -171 c0 -101 4 -178 11
-190 25 -48 105 -44 128 7 7 15 11 88 11 189 l0 165 165 0 165 0 0 -171 c0
-101 4 -178 11 -190 25 -48 110 -43 130 8 5 13 9 98 9 188 l0 164 38 6 c137
23 230 103 267 229 22 75 22 2177 0 2252 -37 126 -130 206 -267 229 l-38 6 0
164 c0 90 -4 175 -9 188 -20 51 -105 56 -130 8 -7 -12 -11 -89 -11 -190 l0
-171 -165 0 -165 0 0 165 c0 101 -4 174 -11 189 -23 51 -103 55 -128 7 -7 -12
-11 -89 -11 -190 l0 -171 -165 0 -165 0 0 165 c0 101 -4 174 -11 189 -23 51
-103 55 -128 7 -7 -12 -11 -89 -11 -190 l0 -171 -164 0 -165 0 -3 176 -3 176
-28 24 c-34 29 -56 30 -91 3 l-26 -20 0 -180 0 -179 -164 0 -165 0 -3 176 -3
176 -28 24 c-34 29 -56 30 -91 3 l-26 -20 0 -180 0 -179 -170 0 -170 0 0 179
0 180 -26 20 c-35 27 -57 26 -91 -3 l-28 -24 -3 -176 -3 -176 -165 0 -164 0 0
179 0 180 -26 20 c-35 27 -57 26 -91 -3 l-28 -24 -3 -176 -3 -176 -165 0 -164
0 0 178 c0 158 -2 181 -17 194 -45 39 -104 27 -123 -25 -5 -16 -10 -101 -10
-188 l0 -159 -165 0 -165 0 0 171 c0 101 -4 178 -11 190 -25 48 -105 44 -128
-7 -7 -15 -11 -88 -11 -189 l0 -165 -165 0 -165 0 0 174 c0 151 -2 176 -17
194 -22 26 -61 35 -89 21z m4486 -549 c41 -11 94 -61 109 -103 7 -17 11 -129
11 -286 l0 -259 -64 -47 c-127 -93 -212 -229 -245 -393 -46 -225 54 -477 245
-617 l64 -47 0 -259 c0 -157 -4 -269 -11 -286 -15 -42 -68 -92 -109 -103 -48
-14 -4532 -14 -4580 0 -41 11 -94 61 -109 103 -7 17 -11 129 -11 286 l0 259
64 47 c191 140 291 392 245 617 -33 164 -118 300 -245 393 l-64 47 0 259 c0
283 3 301 57 352 17 15 43 32 59 37 42 12 4540 12 4584 0z m-4643 -890 c62
-70 113 -209 113 -310 0 -125 -68 -281 -153 -349 -16 -13 -17 8 -17 349 0 399
-4 378 57 310z m4761 -491 l-3 -182 -37 38 c-74 77 -128 213 -128 325 0 112
54 248 128 325 l37 38 3 -182 c1 -99 1 -263 0 -362z"/>
<path d="M934 3270 c-56 -22 -54 1 -54 -712 l0 -657 23 -25 c32 -36 74 -39
107 -6 20 20 20 33 20 641 l0 621 213 -4 c203 -3 214 -4 267 -29 70 -33 117
-79 148 -148 21 -45 24 -64 20 -125 -8 -115 -63 -196 -165 -243 -42 -19 -76
-26 -163 -30 -122 -7 -143 -18 -143 -73 0 -40 26 -67 73 -75 38 -6 39 -7 182
-258 79 -138 152 -263 164 -276 43 -50 124 -19 124 47 0 16 -54 122 -130 254
-71 125 -130 232 -130 237 0 5 20 14 44 20 62 15 161 85 207 147 201 265 44
646 -286 694 -85 12 -491 12 -521 0z"/>
<path d="M2400 3271 c-72 -16 -147 -75 -170 -135 -23 -61 -300 -1187 -300
-1219 0 -49 31 -72 92 -68 29 2 49 45 82 179 l32 127 226 5 c204 5 228 7 247
24 27 25 28 79 1 106 -19 19 -33 20 -225 20 -157 0 -205 3 -205 13 0 6 43 180
94 386 72 284 99 379 115 395 18 17 34 21 91 21 57 0 73 -4 91 -21 16 -17 54
-154 170 -620 107 -427 155 -604 169 -618 43 -44 120 -11 120 51 0 31 -277
1158 -299 1215 -15 39 -70 97 -112 119 -43 21 -162 33 -219 20z"/>
<path d="M3322 3270 c-18 -4 -45 -18 -59 -31 -55 -52 -53 -28 -53 -712 0 -591
1 -636 18 -656 24 -30 76 -31 105 -2 l22 22 3 619 c2 519 5 620 16 620 8 0 18
-12 24 -27 116 -322 216 -592 232 -623 53 -104 203 -104 263 -2 10 17 69 170
130 339 78 214 117 308 127 308 13 0 16 -83 20 -625 3 -344 6 -626 8 -628 1
-2 16 -9 33 -16 40 -17 64 -11 89 22 19 24 20 42 20 646 0 588 -1 623 -19 663
-44 97 -179 121 -261 47 -34 -31 -48 -62 -155 -359 -65 -179 -122 -322 -126
-318 -4 5 -57 148 -119 318 -62 171 -121 322 -132 338 -35 49 -117 74 -186 57z"/>
</g>
</svg>
