<?xml version="1.0" standalone="no"?>
<!DOCTYPE svg PUBLIC "-//W3C//DTD SVG 20010904//EN"
 "http://www.w3.org/TR/2001/REC-SVG-20010904/DTD/svg10.dtd">
<svg version="1.0" xmlns="http://www.w3.org/2000/svg"
 width="512.000000pt" height="512.000000pt" viewBox="0 0 512.000000 512.000000"
 preserveAspectRatio="xMidYMid meet">

<g transform="translate(0.000000,512.000000) scale(0.100000,-0.100000)"
fill="#000000" stroke="none">
<path d="M881 4894 c-30 -8 -69 -23 -86 -34 -51 -32 -110 -102 -131 -156 -18
-48 -19 -108 -19 -2149 l0 -2100 24 -53 c31 -68 113 -144 183 -169 51 -17 129
-18 1708 -18 1579 0 1657 1 1708 18 70 25 152 101 183 169 l24 53 0 2105 0
2105 -24 53 c-29 64 -112 143 -178 168 -46 18 -117 19 -1693 21 -1417 2 -1653
0 -1699 -13z m3338 -220 c54 -38 51 77 51 -2114 0 -2191 3 -2076 -51 -2114
-19 -13 -49 -16 -145 -16 l-122 0 -4 188 -3 189 -30 48 c-22 36 -45 57 -84 77
l-53 28 -1218 0 -1218 0 -53 -28 c-39 -20 -62 -41 -84 -77 l-30 -48 -3 -189
-4 -188 -122 0 c-136 0 -158 8 -182 66 -21 50 -21 4078 0 4128 30 72 -121 66
1696 66 1496 0 1638 -1 1659 -16z m-2619 -4084 l0 -160 -105 0 -105 0 0 160 0
160 105 0 105 0 0 -160z m428 -2 l3 -158 -111 0 -110 0 0 153 c0 85 3 157 7
161 4 4 52 5 107 4 l101 -3 3 -157z m422 2 l0 -160 -105 0 -105 0 0 160 0 160
105 0 105 0 0 -160z m430 0 l0 -160 -105 0 -105 0 0 160 0 160 105 0 105 0 0
-160z m428 -2 l3 -158 -111 0 -110 0 0 153 c0 85 3 157 7 161 4 4 52 5 107 4
l101 -3 3 -157z m422 2 l0 -160 -105 0 -105 0 0 160 0 160 105 0 105 0 0 -160z"/>
<path d="M1118 4463 c-56 -36 -66 -117 -19 -164 72 -71 196 -6 177 93 -13 70
-99 109 -158 71z"/>
<path d="M3910 4473 c-30 -11 -60 -47 -66 -81 -19 -99 105 -164 177 -93 78 79
-7 212 -111 174z"/>
<path d="M1326 3618 c-25 -7 -57 -28 -87 -58 -37 -37 -49 -58 -59 -101 -8 -39
-10 -237 -8 -720 l3 -666 30 -48 c22 -36 45 -57 84 -77 l53 -28 1218 0 1218 0
53 28 c39 20 62 41 84 77 l30 48 3 666 c2 466 0 682 -8 718 -8 36 -23 65 -51
97 -71 81 14 76 -1333 75 -791 -1 -1204 -5 -1230 -11z m2404 -848 l0 -640
-1170 0 -1170 0 0 640 0 640 1170 0 1170 0 0 -640z"/>
<path d="M1740 3187 c-47 -15 -116 -86 -129 -133 -18 -65 -13 -213 8 -259 40
-86 110 -125 226 -125 l75 0 0 -55 0 -55 -126 0 -126 0 -34 -34 c-38 -38 -44
-77 -19 -125 23 -46 56 -53 227 -49 146 3 157 4 191 28 21 14 50 43 65 64 24
36 27 49 30 145 4 122 -6 167 -51 218 -47 53 -97 73 -190 73 l-78 0 3 53 3 52
120 3 c130 2 159 11 181 54 24 47 18 86 -20 124 l-34 34 -143 -1 c-79 -1 -160
-6 -179 -12z"/>
<path d="M2380 3187 c-47 -15 -116 -86 -129 -133 -18 -65 -13 -213 8 -259 40
-86 110 -125 226 -125 l75 0 0 -55 0 -55 -126 0 -126 0 -34 -34 c-38 -38 -44
-77 -19 -125 23 -46 56 -53 227 -49 146 3 157 4 191 28 21 14 50 43 65 64 24
36 27 49 30 145 4 122 -6 167 -51 218 -47 53 -97 73 -190 73 l-78 0 3 53 3 52
120 3 c130 2 159 11 181 54 24 47 18 86 -20 124 l-34 34 -143 -1 c-79 -1 -160
-6 -179 -12z"/>
<path d="M2945 3191 c-11 -5 -29 -19 -40 -31 -19 -21 -20 -39 -23 -374 -3
-313 -1 -354 14 -383 26 -49 53 -55 236 -51 147 3 167 6 206 26 66 35 119 88
149 150 28 56 28 59 28 247 0 187 0 191 -27 241 -40 76 -70 107 -140 145 l-63
34 -160 2 c-88 2 -169 -1 -180 -6z m300 -217 c52 -24 65 -64 65 -198 0 -181
-25 -216 -155 -216 l-65 0 0 208 c0 115 3 212 7 215 12 13 115 7 148 -9z"/>
<path d="M1134 1376 c-91 -40 -84 -165 10 -196 64 -21 136 33 136 100 0 37
-30 81 -65 96 -41 17 -42 17 -81 0z"/>
<path d="M3903 1375 c-33 -14 -63 -59 -63 -95 0 -37 30 -81 67 -96 68 -29 143
21 143 95 0 46 -23 79 -66 97 -40 17 -41 17 -81 -1z"/>
</g>
</svg>
