<?xml version="1.0" standalone="no"?>
<!DOCTYPE svg PUBLIC "-//W3C//DTD SVG 20010904//EN"
 "http://www.w3.org/TR/2001/REC-SVG-20010904/DTD/svg10.dtd">
<svg version="1.0" xmlns="http://www.w3.org/2000/svg"
 width="512.000000pt" height="512.000000pt" viewBox="0 0 512.000000 512.000000"
 preserveAspectRatio="xMidYMid meet">

<g transform="translate(0.000000,512.000000) scale(0.100000,-0.100000)"
fill="#000000" stroke="none">
<path d="M1159 4911 c-23 -18 -24 -25 -27 -175 l-3 -156 -259 0 c-275 0 -299
-4 -319 -47 -7 -15 -11 -114 -11 -283 l0 -259 -156 -3 c-150 -3 -157 -4 -175
-27 -25 -30 -24 -66 1 -91 18 -18 33 -20 175 -20 l155 0 0 -270 0 -270 -150 0
c-147 0 -152 -1 -175 -25 -31 -30 -32 -65 -2 -93 22 -21 33 -22 175 -22 l152
0 0 -270 0 -270 -153 0 c-148 0 -154 -1 -175 -23 -28 -30 -28 -68 1 -95 22
-21 33 -22 175 -22 l152 0 0 -270 0 -270 -153 0 c-148 0 -154 -1 -175 -23 -29
-30 -28 -62 3 -92 23 -24 28 -25 175 -25 l150 0 0 -270 0 -270 -155 0 c-142 0
-157 -2 -175 -20 -25 -25 -26 -61 -1 -91 18 -23 25 -24 175 -27 l156 -3 0
-259 c0 -169 4 -268 11 -283 20 -43 44 -47 319 -47 l259 0 3 -156 c3 -150 4
-157 27 -175 30 -25 66 -24 91 1 18 18 20 33 20 175 l0 155 270 0 270 0 0
-150 c0 -147 1 -152 25 -175 30 -31 65 -32 93 -2 21 22 22 33 22 175 l0 152
270 0 270 0 0 -153 c0 -148 1 -154 23 -175 30 -28 68 -28 95 1 21 22 22 33 22
175 l0 152 270 0 270 0 0 -153 c0 -148 1 -154 23 -175 30 -29 62 -28 92 3 24
23 25 28 25 175 l0 150 270 0 270 0 0 -155 c0 -142 2 -157 20 -175 25 -25 61
-26 91 -1 23 18 24 25 27 175 l3 156 259 0 c275 0 299 4 319 47 7 15 11 114
11 283 l0 259 156 3 c150 3 157 4 175 27 25 30 24 66 -1 91 -18 18 -33 20
-175 20 l-155 0 0 270 0 270 150 0 c147 0 152 1 175 25 31 30 32 65 2 93 -22
21 -33 22 -175 22 l-152 0 0 270 0 270 153 0 c148 0 154 1 175 23 28 30 28 68
-1 95 -22 21 -33 22 -175 22 l-152 0 0 270 0 270 153 0 c148 0 154 1 175 23
29 30 28 62 -3 92 -23 24 -28 25 -175 25 l-150 0 0 270 0 270 155 0 c142 0
157 2 175 20 25 25 26 61 1 91 -18 23 -25 24 -175 27 l-156 3 0 259 c0 169 -4
268 -11 283 -20 43 -44 47 -319 47 l-259 0 -3 156 c-3 150 -4 157 -27 175 -30
25 -66 24 -91 -1 -18 -18 -20 -33 -20 -175 l0 -155 -270 0 -270 0 0 150 c0
147 -1 152 -25 175 -30 31 -65 32 -93 2 -21 -22 -22 -33 -22 -175 l0 -152
-270 0 -270 0 0 153 c0 148 -1 154 -23 175 -30 28 -68 28 -95 -1 -21 -22 -22
-33 -22 -175 l0 -152 -270 0 -270 0 0 153 c0 148 -1 154 -23 175 -30 29 -62
28 -92 -3 -24 -23 -25 -28 -25 -175 l0 -150 -270 0 -270 0 0 155 c0 142 -2
157 -20 175 -25 25 -61 26 -91 1z m3276 -2351 l0 -1875 -1875 0 -1875 0 -3
1865 c-1 1026 0 1871 3 1878 3 10 384 12 1877 10 l1873 -3 0 -1875z"/>
<path d="M943 4208 c-39 -19 -44 -53 -41 -256 3 -170 5 -192 22 -211 24 -26
77 -28 99 -3 14 15 17 47 19 177 l3 160 160 3 c130 2 162 5 177 19 25 22 23
75 -3 99 -19 17 -40 19 -218 21 -125 1 -204 -2 -218 -9z"/>
<path d="M3770 4213 c-31 -12 -50 -37 -50 -68 0 -58 17 -64 195 -67 l160 -3 3
-160 c2 -130 5 -162 19 -177 22 -25 75 -23 99 3 17 19 19 41 22 211 3 206 -2
237 -44 257 -25 11 -374 15 -404 4z"/>
<path d="M1645 3007 c-179 -46 -317 -197 -344 -377 -34 -220 101 -435 313
-502 48 -15 83 -19 162 -16 92 3 107 6 175 40 41 20 88 51 104 68 l30 32 -53
49 -53 49 -46 -35 c-196 -149 -473 -5 -473 245 0 116 58 215 157 268 109 58
220 50 314 -22 l45 -34 52 45 c29 25 52 50 52 57 0 20 -106 93 -168 117 -70
26 -197 34 -267 16z"/>
<path d="M2210 2560 l0 -440 80 0 80 0 0 149 0 149 168 4 c159 3 170 5 218 30
68 36 112 81 142 147 21 45 24 64 20 126 -8 125 -83 217 -206 255 -56 17 -93
20 -283 20 l-219 0 0 -440z m467 271 c77 -35 106 -125 61 -191 -39 -59 -84
-74 -235 -78 l-133 -4 0 146 0 146 133 0 c108 0 140 -4 174 -19z"/>
<path d="M3052 2693 l3 -308 27 -57 c35 -76 95 -138 170 -179 62 -33 65 -34
188 -34 118 0 128 2 178 28 106 56 180 155 201 272 6 33 11 175 11 322 l0 263
-80 0 -80 0 0 -255 c0 -278 -7 -330 -51 -400 -71 -112 -238 -127 -336 -29 -67
67 -73 102 -73 416 l0 268 -81 0 -80 0 3 -307z"/>
<path d="M924 1379 c-17 -19 -19 -41 -22 -211 -2 -128 1 -200 8 -219 19 -45
49 -51 258 -47 170 3 192 5 211 22 26 24 28 77 3 99 -15 14 -47 17 -177 19
l-160 3 -3 160 c-2 130 -5 162 -19 177 -22 25 -75 23 -99 -3z"/>
<path d="M4097 1382 c-14 -15 -17 -47 -19 -177 l-3 -160 -160 -3 c-130 -2
-162 -5 -177 -19 -25 -22 -23 -75 3 -99 19 -17 41 -19 211 -22 128 -2 200 1
219 8 45 19 51 49 47 258 -3 170 -5 192 -22 211 -24 26 -77 28 -99 3z"/>
</g>
</svg>
